<?xml version="1.0" encoding="UTF-8" standalone="no"?>
<svg
   xmlns:dc="http://purl.org/dc/elements/1.1/"
   xmlns:cc="http://creativecommons.org/ns#"
   xmlns:rdf="http://www.w3.org/1999/02/22-rdf-syntax-ns#"
   xmlns:svg="http://www.w3.org/2000/svg"
   xmlns="http://www.w3.org/2000/svg"
   xmlns:sodipodi="http://sodipodi.sourceforge.net/DTD/sodipodi-0.dtd"
   xmlns:inkscape="http://www.inkscape.org/namespaces/inkscape"
   viewBox="0 0 157.95085 107.60851"
   version="1.1"
   id="svg994"
   sodipodi:docname="logo4.svg"
   width="157.95085"
   height="107.60851"
   inkscape:version="1.0.1 (3bc2e813f5, 2020-09-07)">
  <metadata
     id="metadata1000">
    <rdf:RDF>
      <cc:Work
         rdf:about="">
        <dc:format>image/svg+xml</dc:format>
        <dc:type
           rdf:resource="http://purl.org/dc/dcmitype/StillImage" />
        <dc:title></dc:title>
      </cc:Work>
    </rdf:RDF>
  </metadata>
  <defs
     id="defs998" />
  <sodipodi:namedview
     pagecolor="#ffffff"
     bordercolor="#666666"
     borderopacity="1"
     objecttolerance="10"
     gridtolerance="10"
     guidetolerance="10"
     inkscape:pageopacity="0"
     inkscape:pageshadow="2"
     inkscape:window-width="1920"
     inkscape:window-height="1080"
     id="namedview996"
     showgrid="false"
     fit-margin-top="5"
     fit-margin-left="5"
     fit-margin-bottom="5"
     fit-margin-right="5"
     inkscape:zoom="3.1855161"
     inkscape:cx="89.92009"
     inkscape:cy="54.358067"
     inkscape:window-x="0"
     inkscape:window-y="0"
     inkscape:window-maximized="1"
     inkscape:current-layer="text1025"
     inkscape:document-rotation="0" />
  <path
     fill="#0f62fe"
     d="m 142.42009,17.79983 c 11.4,9.8 13.4,31.4 6.7,47 -6.8,15.6 -22.4,25.1 -37.9,31.1 -15.5,6.1 -30.9,8.7 -50.5,5 -19.7,-3.7 -43.6,-13.6 -52.0999999,-32.3 -8.49999997,-18.7 -1.4,-46.2 14.6999999,-57.1 16.1,-10.89999993 41.4,-5.1999999 64.3,-3.3999999 22.9,1.9 43.5,-0.1 54.8,9.6999999 z"
     id="path992" />
  <g
     aria-label="J"
     id="text1004"
     style="font-style:normal;font-variant:normal;font-weight:bold;font-stretch:normal;font-size:64px;line-height:1.25;font-family:'Iosevka Slab';-inkscape-font-specification:'Iosevka Slab Bold';letter-spacing:0px;word-spacing:0px;writing-mode:lr-tb;fill:#ffffff">
    <path
       d="m 73.881303,66.997458 q -2.24,0 -4.352,-0.64 -2.112,-0.704 -3.84,-2.176 -1.664,-1.472 -2.688,-3.456 -0.96,-1.984 -1.28,-4.16 l 7.232,-1.728 q 0.192,1.344 0.704,2.56 0.576,1.216 1.728,2.048 1.152,0.768 2.496,0.768 1.536,0 2.752,-1.088 1.28,-1.152 1.664,-2.688 0.448,-1.536 0.448,-3.136 v -27.072 h -7.424 v -6.784 h 14.976 v 33.856 q 0,2.624 -0.768,5.184 -0.704,2.496 -2.432,4.544 -1.664,2.048 -4.16,3.008 -2.496,0.96 -5.056,0.96 z"
       id="path939" />
  </g>
  <path
     style="fill:#ffffff;stroke:#ffffff;stroke-width:1.88976;stroke-linecap:butt;stroke-linejoin:miter;stroke-miterlimit:4;stroke-dasharray:none;stroke-opacity:1"
     d="M 23.385773,32.304867 135.15142,32.008113"
     id="path1006" />
  <g
     aria-label="2"
     id="text1025"
     style="font-style:normal;font-variant:normal;font-weight:bold;font-stretch:normal;font-size:37.3333px;line-height:1.25;font-family:Muli;-inkscape-font-specification:'Muli Bold';letter-spacing:0px;word-spacing:0px;writing-mode:lr-tb;fill:#ffffff">
    <g
       aria-label="2"
       id="text965"
       style="font-style:italic;font-variant:normal;font-weight:bold;font-stretch:normal;font-size:37.3333px;line-height:1.25;font-family:Muli;-inkscape-font-specification:'Muli Bold Italic';letter-spacing:0px;word-spacing:0px;writing-mode:lr-tb">
      <path
         d="m 103.83139,62.686411 h 11.72265 l -0.336,3.919996 H 97.410059 l 0.298666,-3.546663 9.781325,-9.706659 q 1.904,-1.866665 2.76266,-3.39733 0.85867,-1.530666 0.85867,-2.986664 0,-1.642666 -1.04533,-2.538665 -1.008,-0.895999 -2.912,-0.895999 -3.584,0 -7.35466,2.762664 l -1.306665,-3.50933 q 1.717335,-1.493332 4.069325,-2.277332 2.352,-0.783999 5.04,-0.821332 3.808,0 6.04799,1.941331 2.24,1.941332 2.24,5.301329 0,2.202665 -1.15733,4.218663 -1.12,2.015999 -3.88266,4.74133 z"
         id="path967" />
    </g>
  </g>
  <path
     style="fill:#ffffff;stroke:#ffffff;stroke-width:1.88976;stroke-linecap:butt;stroke-linejoin:miter;stroke-miterlimit:4;stroke-dasharray:none;stroke-opacity:1"
     d="M 23.042423,70.251279 134.80807,69.954529"
     id="path1006-3" />
</svg>
